<?xml version="1.0" standalone="no"?>
<!DOCTYPE svg PUBLIC "-//W3C//DTD SVG 20010904//EN"
 "http://www.w3.org/TR/2001/REC-SVG-20010904/DTD/svg10.dtd">
<svg version="1.0" xmlns="http://www.w3.org/2000/svg"
 width="1920.000000pt" height="1920.000000pt" viewBox="0 0 1920.000000 1920.000000"
 preserveAspectRatio="xMidYMid meet">
<metadata>
Created by potrace 1.14, written by Peter Selinger 2001-2017
</metadata>
<g transform="translate(0.000000,1920.000000) scale(0.100000,-0.100000)"
fill="#000000" stroke="none">
<path d="M8597 13346 l-299 -261 144 -5 143 -5 3 -100 3 -101 -172 -28 c-94
-15 -184 -32 -200 -36 -16 -5 -234 -149 -486 -320 l-458 -312 -259 -484 c-143
-266 -264 -484 -268 -484 -4 0 -24 32 -43 70 -39 78 -46 83 -160 106 -85 18
-111 34 -120 73 -9 42 0 63 38 87 18 12 44 42 57 66 l23 45 -32 98 c-26 80
-31 103 -22 122 16 36 13 67 -9 96 -20 25 -22 25 -187 29 -158 3 -171 5 -219
30 -84 44 -144 120 -144 184 0 19 -44 52 -80 59 -99 19 -111 25 -127 63 -8 20
-30 54 -48 77 -18 22 -43 60 -55 84 -27 55 -110 138 -145 147 -44 11 -101 -13
-162 -70 -32 -29 -68 -58 -80 -64 -28 -15 -70 -14 -108 2 -29 12 -31 12 -50
-23 -29 -52 -84 -76 -144 -65 -41 8 -47 13 -57 44 -23 75 -140 100 -279 60
-39 -12 -94 -21 -124 -22 -45 -1 -58 3 -73 22 -10 12 -18 28 -18 36 0 27 -61
83 -108 98 -83 26 -132 28 -242 7 -139 -26 -146 -29 -209 -95 -47 -51 -60 -58
-110 -68 -33 -6 -96 -7 -153 -3 -79 5 -102 4 -128 -10 -31 -16 -60 -66 -60
-103 0 -17 -12 -21 -74 -31 -129 -19 -182 -45 -261 -126 -38 -40 -87 -85 -108
-100 -37 -27 -39 -27 -137 -20 l-100 7 -30 -32 c-50 -54 -36 -104 34 -127 70
-22 59 -73 -27 -128 -54 -35 -62 -45 -65 -74 -2 -23 3 -43 18 -63 27 -37 37
-93 20 -113 -7 -9 -29 -15 -51 -15 -73 0 -90 -77 -34 -161 31 -48 32 -73 0
-104 -46 -47 -126 -25 -140 37 -2 13 -6 37 -7 53 l-3 30 -75 3 c-73 3 -77 2
-105 -28 -37 -39 -68 -39 -181 1 -64 23 -96 29 -122 24 -41 -8 -89 -51 -96
-89 -4 -14 -8 -37 -11 -50 -4 -19 -19 -28 -84 -50 -44 -14 -89 -26 -100 -26
-25 0 -41 -28 -41 -69 0 -24 7 -36 32 -51 39 -24 86 -39 150 -47 43 -5 48 -8
48 -31 0 -35 -64 -92 -131 -117 -41 -16 -55 -26 -57 -44 -7 -47 65 -91 184
-112 93 -16 97 -30 53 -176 -20 -69 -16 -90 30 -182 30 -58 18 -75 -72 -102
-87 -26 -146 -79 -166 -151 l-13 -46 -77 5 c-42 2 -101 1 -131 -4 l-55 -8 -30
-62 c-17 -33 -50 -82 -73 -107 -33 -36 -42 -52 -37 -69 12 -40 53 -94 87 -115
58 -36 83 -37 140 -7 l53 28 51 -56 c42 -47 59 -59 103 -69 44 -10 56 -9 87 5
38 19 64 65 64 117 l0 30 63 0 c75 0 130 23 180 75 20 21 37 42 37 46 0 4 12
21 26 38 31 37 60 39 121 10 24 -12 46 -20 47 -18 2 2 20 37 40 76 43 86 70
108 127 100 32 -4 52 1 97 24 l56 30 91 -22 c72 -18 97 -29 122 -55 18 -17 33
-37 33 -43 0 -7 -22 -11 -57 -11 -40 0 -68 -6 -91 -20 -30 -18 -32 -23 -26
-58 8 -49 -7 -65 -79 -81 -47 -10 -59 -18 -81 -51 -16 -25 -47 -50 -88 -72
-50 -27 -64 -39 -70 -65 -12 -45 6 -81 47 -98 49 -21 67 -19 123 16 33 20 67
32 105 36 53 5 58 4 99 -30 50 -41 105 -67 143 -67 34 0 65 33 65 69 0 37 49
81 91 81 29 0 67 -39 55 -58 -3 -6 -1 -24 5 -41 9 -26 16 -31 42 -31 18 0 51
9 74 19 41 19 42 19 60 -1 24 -27 72 -51 89 -44 24 9 54 69 54 107 0 43 10 49
85 49 56 0 85 -16 85 -48 0 -36 21 -90 37 -96 9 -4 25 2 38 14 47 44 86 16 88
-64 2 -50 6 -61 30 -82 43 -37 63 -31 125 37 55 59 57 60 96 53 53 -8 141 -41
186 -68 19 -12 60 -29 91 -39 60 -18 131 -72 154 -118 12 -23 15 -79 15 -293
l0 -266 43 6 c23 3 78 8 122 12 l80 7 5 285 c3 157 9 292 13 301 11 23 49 38
79 32 41 -8 58 19 58 93 l0 64 48 0 c26 0 53 -5 60 -12 9 -9 12 -106 12 -375
l0 -363 33 0 c17 0 120 7 227 15 727 55 2018 114 2855 130 154 3 325 8 380 10
188 9 2629 5 3030 -5 520 -13 1253 -38 1475 -50 96 -5 210 -10 253 -10 76 0
77 0 77 25 l0 25 436 0 436 0 -4 -49 c-4 -58 1 -61 95 -61 l57 0 0 55 0 55
395 0 395 0 0 -85 c0 -96 -5 -91 88 -99 l62 -6 0 95 0 95 400 0 400 0 0 -134
c0 -152 -8 -139 93 -151 l57 -6 -2 573 -3 573 -72 3 -73 3 0 -66 0 -65 -400 0
-399 0 -3 63 -3 62 -70 0 -70 0 -3 -62 -3 -63 -394 0 -394 0 -3 63 -3 62 -72
3 -73 3 0 -66 0 -65 -435 0 -435 0 0 150 c0 92 4 150 10 150 5 0 76 -25 156
-55 81 -30 148 -55 149 -55 5 0 49 140 45 144 -3 2 -358 132 -790 289 -432
157 -793 288 -802 292 -14 6 -18 19 -18 66 0 34 4 59 10 59 6 0 81 -27 167
-60 86 -33 157 -59 159 -57 2 2 15 33 29 70 l25 67 -22 9 c-13 5 -102 39 -198
76 -96 37 -180 72 -187 79 -6 6 -167 346 -356 756 -190 410 -353 762 -363 783
-12 26 -133 146 -364 361 -190 177 -362 337 -382 355 l-36 32 -654 -597 -653
-598 -262 -739 c-144 -407 -264 -741 -265 -742 -9 -9 -560 -226 -564 -223 -12
12 -52 124 -46 129 4 3 118 50 253 104 l246 98 252 716 c139 394 260 726 269
738 9 13 289 271 622 573 333 303 606 554 608 559 1 4 -248 -34 -555 -85 -307
-52 -564 -94 -570 -94 -9 0 -13 17 -13 51 l0 50 130 -3 c72 -2 130 0 130 3 0
6 -529 492 -560 515 -12 9 -71 -38 -313 -250z m493 -331 l0 -184 -32 -6 c-201
-34 -331 -55 -339 -55 -5 0 -9 88 -9 215 l0 215 190 0 190 0 0 -185z m-4839
-471 c10 -9 19 -24 19 -32 0 -29 45 -75 94 -97 83 -38 139 -40 231 -11 115 37
146 35 176 -11 34 -51 65 -71 132 -84 72 -13 150 1 204 38 21 14 66 32 99 39
79 16 127 41 189 98 28 25 52 46 55 46 3 0 26 -34 52 -75 l47 -74 -17 -41 -17
-40 -66 0 c-75 0 -79 -4 -79 -91 l0 -46 -60 -16 -60 -17 30 -81 c17 -44 30
-100 30 -124 l0 -43 -117 -31 c-65 -18 -171 -50 -236 -73 l-118 -41 -86 12
c-48 7 -98 18 -112 25 -36 19 -162 46 -209 46 l-39 0 -7 -57 c-15 -127 -74
-173 -219 -173 -92 0 -148 15 -165 45 -23 42 -95 -29 -138 -137 -14 -35 -36
-126 -50 -203 -29 -170 -40 -186 -131 -193 -32 -2 -77 1 -100 6 -41 10 -43 9
-43 -14 0 -30 -14 -30 -98 -4 -91 29 -210 28 -247 -2 -36 -28 -52 -68 -60
-154 l-7 -71 -59 -6 c-103 -9 -158 -62 -173 -168 l-7 -47 -94 49 c-157 83
-378 149 -499 149 -112 0 -191 -36 -245 -111 l-28 -38 -12 38 c-12 43 -76 107
-116 117 -14 3 -25 7 -25 9 0 2 13 17 30 35 69 74 64 211 -10 250 l-22 12 25
26 c29 31 57 84 57 107 0 19 4 19 70 -6 30 -11 87 -23 125 -26 60 -4 77 -1
115 19 l45 23 24 -48 c51 -104 154 -131 265 -68 93 54 120 118 91 216 l-16 58
36 29 c63 52 82 116 60 200 l-13 53 38 32 c49 43 74 106 68 173 l-5 50 34 0
c63 0 155 61 223 148 57 73 86 88 183 97 44 4 98 14 119 22 42 17 78 66 78
106 l0 27 138 -3 c126 -2 141 0 185 22 26 12 66 45 89 72 45 53 49 55 172 75
97 15 151 12 177 -12z m6814 -1209 l0 -820 -567 -3 -568 -2 0 825 0 825 568
-2 567 -3 0 -820z m615 -1701 l0 -647 -46 7 c-26 3 -64 6 -85 6 l-39 0 0 555
0 555 -465 0 -465 0 0 -540 0 -541 -87 3 -88 3 -3 538 -2 537 -463 -2 -462 -3
-3 -527 -2 -528 -85 0 -85 0 0 615 0 615 1190 0 1190 0 0 -646z m2498 -226
l-3 -63 -430 0 -430 0 -3 63 -3 62 436 0 436 0 -3 -62z m942 -3 l0 -65 -395 0
-395 0 0 65 0 65 395 0 395 0 0 -65z m948 3 l-3 -63 -395 0 -395 0 -3 63 -3
62 401 0 401 0 -3 -62z m-1893 -283 l0 -60 -432 -3 -433 -2 0 58 c0 32 3 62 7
65 3 4 198 6 432 5 l426 -3 0 -60z m945 0 l0 -65 -395 0 -395 0 0 65 0 65 395
0 395 0 0 -65z m948 -2 l3 -63 -401 0 -400 0 0 65 0 65 398 -2 397 -3 3 -62z"/>
<path d="M10120 11987 c0 -9 367 -501 375 -503 8 -3 363 471 373 497 2 5 -165
9 -372 9 -207 0 -376 -1 -376 -3z"/>
<path d="M10090 11335 c0 -223 2 -405 4 -405 5 0 265 352 286 386 12 20 2 38
-134 223 -81 110 -149 201 -152 201 -2 0 -4 -182 -4 -405z"/>
<path d="M10751 11544 c-79 -108 -144 -201 -145 -208 0 -6 64 -100 144 -209
l145 -198 3 200 c1 110 1 292 0 406 l-3 205 -144 -196z"/>
<path d="M10306 10938 l-187 -253 372 -3 c205 -1 374 0 376 2 6 5 -359 505
-369 506 -3 0 -90 -114 -192 -252z"/>
<path d="M2650 6895 l0 -55 50 0 50 0 0 -135 0 -135 -42 22 c-35 18 -59 22
-133 23 -76 0 -99 -4 -146 -26 -120 -56 -180 -154 -187 -306 -6 -129 19 -211
88 -286 66 -72 129 -100 230 -101 58 0 84 5 117 22 23 12 44 26 48 32 11 18
25 10 25 -15 l0 -25 110 0 110 0 0 54 0 55 -47 3 -48 3 -3 463 -2 462 -110 0
-110 0 0 -55z m57 -412 l38 -20 3 -201 2 -201 -46 -27 c-25 -15 -67 -29 -93
-32 -144 -14 -241 85 -241 247 0 40 5 91 11 112 16 52 64 108 113 131 53 24
157 20 213 -9z"/>
<path d="M4970 6896 l0 -55 48 -3 47 -3 3 -407 2 -408 -55 0 -55 0 0 -55 0
-55 165 0 165 0 0 55 0 55 -50 0 -50 0 0 203 c0 229 -3 218 80 256 55 25 130
27 177 4 62 -29 73 -69 73 -280 l0 -183 -45 0 -45 0 0 -55 0 -55 160 0 160 0
0 55 0 55 -50 0 -50 0 0 193 c0 217 -10 274 -61 331 -76 87 -247 92 -356 10
-17 -13 -34 -24 -37 -24 -3 0 -6 95 -6 210 l0 210 -110 0 -110 0 0 -54z"/>
<path d="M15030 6895 l0 -55 50 0 50 0 0 -410 0 -410 -50 0 -50 0 0 -55 0 -55
165 0 165 0 0 55 0 55 -50 0 -50 0 0 465 0 465 -115 0 -115 0 0 -55z"/>
<path d="M3641 6925 c-97 -27 -159 -77 -197 -160 -43 -91 -28 -205 38 -280 50
-57 88 -77 225 -116 137 -40 185 -62 223 -105 25 -29 30 -43 30 -88 0 -101
-69 -159 -189 -160 -127 -2 -205 50 -217 144 l-7 50 -83 0 -84 0 0 -55 c0 -52
1 -55 24 -55 20 0 31 -12 57 -60 60 -112 152 -155 318 -148 110 5 165 24 230
83 80 73 111 163 91 262 -26 122 -98 180 -308 248 -179 57 -214 80 -233 148
-24 91 45 169 161 183 108 12 200 -38 222 -122 l12 -44 78 0 78 0 0 55 c0 52
-1 55 -25 55 -14 0 -25 4 -25 9 0 24 -103 120 -152 141 -68 30 -190 36 -267
15z"/>
<path d="M9670 6933 c-36 -13 -60 -47 -60 -83 0 -93 116 -120 157 -36 14 29
14 39 3 66 -7 17 -25 37 -41 45 -30 16 -35 17 -59 8z"/>
<path d="M17324 6930 c-59 -24 -70 -95 -24 -142 26 -25 36 -29 63 -24 40 8 77
48 77 86 0 56 -66 101 -116 80z"/>
<path d="M0 6870 l0 -60 50 0 50 0 0 -395 0 -395 -50 0 -50 0 0 -55 0 -55 165
0 165 0 0 55 0 55 -50 0 -50 0 0 175 0 175 175 0 175 0 0 55 0 55 -175 0 -175
0 0 165 0 165 180 0 180 0 0 -85 0 -85 70 0 71 0 -3 143 -3 142 -362 3 -363 2
0 -60z"/>
<path d="M8550 6871 l0 -60 48 -3 47 -3 0 -390 0 -390 -47 -3 -48 -3 0 -55 0
-54 223 0 c156 0 237 4 273 14 167 44 305 184 349 351 17 68 19 208 4 275 -31
133 -134 262 -260 324 -94 46 -164 56 -401 56 l-188 0 0 -59z m522 -94 c141
-69 227 -254 199 -424 -23 -136 -103 -251 -211 -302 -49 -23 -67 -26 -170 -26
l-115 0 -3 380 c-1 209 0 386 3 394 4 10 30 12 123 10 104 -4 123 -7 174 -32z"/>
<path d="M12488 6799 l-58 -29 0 -85 0 -85 -55 0 -55 0 0 -50 0 -50 55 0 55 0
0 -238 c0 -227 1 -240 23 -282 35 -69 64 -85 155 -85 49 1 91 7 114 17 l37 17
-13 38 c-9 23 -19 37 -27 34 -8 -2 -37 -6 -66 -9 -45 -4 -55 -1 -77 21 l-26
26 0 231 0 230 80 0 80 0 0 50 0 50 -80 0 -79 0 -3 114 -3 114 -57 -29z"/>
<path d="M1662 6601 c-146 -50 -222 -190 -210 -385 12 -192 119 -310 293 -323
43 -3 94 -1 126 7 55 13 163 62 173 79 5 8 -30 81 -38 81 -2 0 -31 -12 -67
-26 -116 -48 -252 -34 -310 32 -28 32 -49 81 -56 129 l-6 45 253 0 253 0 -6
73 c-7 90 -39 178 -84 228 -67 74 -206 100 -321 60z m196 -105 c36 -19 67 -67
76 -118 l7 -38 -181 0 c-165 0 -180 1 -180 18 1 26 35 95 58 115 52 47 154 57
220 23z"/>
<path d="M4410 6594 c-92 -42 -151 -110 -185 -212 -27 -82 -18 -228 19 -304
37 -78 120 -153 193 -174 122 -36 258 -1 335 84 69 77 69 86 -7 118 -28 11
-40 13 -43 5 -9 -28 -59 -75 -97 -92 -137 -63 -280 41 -293 212 -12 178 100
306 246 279 47 -8 102 -41 120 -69 10 -18 22 -21 77 -21 l65 0 0 55 0 55 -34
0 c-23 0 -45 9 -65 26 -81 68 -230 85 -331 38z"/>
<path d="M6080 6614 c-45 -9 -145 -44 -163 -58 -17 -13 -17 -16 -1 -55 17 -42
23 -48 40 -32 17 17 117 41 168 41 99 0 156 -55 156 -150 l0 -45 -118 0 c-113
0 -120 -1 -185 -33 -54 -27 -72 -42 -93 -78 -66 -113 -28 -235 91 -290 85 -40
175 -31 263 27 l42 28 0 -29 0 -30 100 0 100 0 0 54 0 55 -37 3 -38 3 -5 227
-5 226 -30 43 c-41 58 -103 89 -191 94 -38 2 -80 1 -94 -1z m200 -472 c0 -86
-4 -94 -67 -126 -119 -60 -256 -2 -240 101 7 41 21 59 62 85 24 14 51 18 138
18 l107 0 0 -78z"/>
<path d="M6798 6605 c-47 -12 -130 -46 -146 -60 -2 -2 6 -21 17 -43 l21 -41
45 20 c58 26 161 35 208 20 20 -7 48 -26 62 -42 21 -25 25 -41 25 -90 l0 -59
-74 6 c-138 12 -249 -23 -310 -99 -26 -33 -31 -48 -34 -107 -4 -61 -1 -75 22
-114 64 -110 234 -139 350 -61 45 30 44 30 48 3 3 -22 8 -23 106 -26 l102 -3
0 56 0 55 -39 0 -40 0 -3 218 c-3 200 -5 220 -25 257 -27 51 -58 80 -107 100
-54 23 -160 27 -228 10z m242 -460 c0 -68 -2 -76 -27 -99 -51 -47 -149 -68
-210 -45 -52 19 -73 48 -73 99 0 92 45 119 203 120 l107 0 0 -75z"/>
<path d="M7693 6605 c-24 -7 -59 -22 -78 -34 -45 -26 -45 -26 -45 4 l0 25
-110 0 -110 0 0 -55 0 -55 50 0 50 0 -2 -392 -3 -393 -47 -3 -48 -3 0 -55 0
-54 165 0 165 0 0 54 0 55 -52 3 -53 3 -3 114 c-2 105 -1 113 15 106 62 -24
142 -37 193 -31 163 20 276 136 302 313 14 98 -6 201 -54 276 -71 111 -209
162 -335 122z m169 -131 c145 -101 122 -383 -36 -455 -70 -32 -187 -19 -237
27 -17 16 -19 32 -19 204 0 210 -3 201 80 240 66 31 155 24 212 -16z"/>
<path d="M10192 6606 c-93 -30 -158 -97 -198 -201 -28 -74 -26 -239 5 -316 29
-76 88 -141 153 -170 45 -20 68 -24 153 -23 86 0 109 4 165 27 107 46 116 59
72 114 l-17 23 -65 -27 c-50 -21 -83 -27 -141 -27 -67 -1 -81 2 -124 29 -54
34 -90 91 -101 163 l-7 42 253 0 253 0 -6 78 c-9 137 -61 229 -157 278 -46 23
-179 29 -238 10z m191 -113 c37 -22 63 -63 72 -115 l7 -38 -182 0 -182 0 7 28
c10 41 34 88 55 107 51 46 159 55 223 18z"/>
<path d="M11165 6610 c-51 -9 -87 -24 -133 -55 l-37 -25 -5 32 -5 33 -113 3
-113 3 3 -53 3 -53 48 -3 47 -3 0 -235 0 -234 -51 0 -50 0 3 -52 3 -53 163 -3
162 -2 0 55 0 55 -50 0 -50 0 0 203 c0 229 -3 218 80 256 55 25 130 27 177 4
62 -29 73 -69 73 -280 l0 -183 -50 0 -50 0 0 -55 0 -55 165 0 165 0 0 55 0 55
-50 0 -50 0 0 193 c0 217 -10 274 -61 331 -46 53 -139 80 -224 66z"/>
<path d="M11815 6596 c-58 -27 -78 -47 -100 -99 -33 -80 -11 -168 57 -217 21
-15 90 -47 152 -70 128 -48 160 -72 160 -125 0 -64 -64 -101 -156 -93 -59 6
-100 33 -113 76 -9 32 -9 32 -77 32 l-68 0 0 -60 0 -60 39 0 c24 0 41 -5 44
-14 3 -8 27 -27 52 -42 62 -36 166 -44 249 -20 176 51 209 271 54 359 -24 14
-86 39 -140 56 -113 37 -148 65 -148 115 0 53 45 86 116 86 31 0 65 -5 77 -11
36 -19 67 -51 67 -71 0 -16 9 -18 70 -18 l70 0 0 55 0 55 -32 0 c-22 0 -41 9
-58 27 -42 44 -96 63 -185 63 -63 0 -90 -5 -130 -24z"/>
<path d="M13813 6601 c-97 -33 -167 -109 -198 -215 -20 -65 -19 -198 1 -267
31 -106 113 -193 209 -218 50 -14 146 -14 204 0 36 8 156 61 169 74 2 2 -6 22
-19 45 -16 29 -27 39 -39 34 -97 -41 -121 -47 -190 -48 -59 -1 -84 4 -117 22
-66 34 -113 112 -113 183 l0 29 250 0 250 0 0 45 c0 109 -44 222 -107 274 -72
60 -198 77 -300 42z m187 -103 c45 -24 72 -63 85 -125 l7 -33 -181 0 c-204 0
-198 -3 -162 76 43 94 155 131 251 82z"/>
<path d="M15702 6605 c-118 -37 -193 -135 -214 -284 -22 -151 29 -303 126
-373 91 -66 239 -75 366 -24 96 39 106 48 90 85 -20 50 -30 53 -96 26 -187
-76 -342 -8 -368 162 l-6 43 252 2 253 3 -3 50 c-10 172 -78 281 -197 314 -53
15 -150 13 -203 -4z m197 -113 c39 -29 60 -63 67 -109 l7 -43 -182 0 -182 0 6
23 c25 82 63 128 124 148 40 13 132 2 160 -19z"/>
<path d="M16674 6609 c-44 -8 -138 -52 -149 -69 -13 -21 -25 -9 -25 25 l0 35
-110 0 -110 0 0 -55 0 -55 45 0 45 0 0 -235 0 -235 -45 0 -45 0 0 -55 0 -55
160 0 160 0 0 55 0 55 -50 0 -50 0 2 207 3 207 49 30 c65 41 164 48 214 16 55
-34 62 -66 62 -275 l0 -185 -50 0 -50 0 0 -55 0 -55 165 0 165 0 0 54 0 55
-47 3 -48 3 -5 215 c-6 239 -11 263 -73 317 -53 47 -135 67 -213 52z"/>
<path d="M18034 6610 c-45 -9 -138 -53 -149 -70 -13 -21 -25 -9 -25 25 l0 35
-110 0 -110 0 0 -55 0 -55 45 0 45 0 0 -235 0 -235 -45 0 -45 0 0 -55 0 -55
160 0 160 0 0 55 0 55 -50 0 -50 0 2 207 3 207 49 30 c65 41 164 48 214 16 55
-34 62 -66 62 -274 l0 -185 -47 -3 -48 -3 0 -50 0 -50 163 -3 162 -2 0 55 0
55 -50 0 -50 0 0 198 c0 235 -9 281 -69 335 -56 50 -139 72 -217 57z"/>
<path d="M18801 6605 c-100 -28 -163 -82 -208 -180 -24 -54 -27 -71 -27 -165
0 -125 22 -192 85 -263 96 -110 271 -138 384 -61 20 14 39 23 42 20 11 -10
-17 -139 -37 -170 -32 -53 -77 -69 -180 -64 -71 3 -97 9 -146 33 -32 17 -61
31 -65 33 -11 5 -61 -80 -55 -94 9 -24 122 -72 199 -84 139 -24 268 8 332 83
68 79 69 89 73 520 l3 387 -60 0 c-49 0 -61 -3 -61 -16 0 -9 -3 -14 -7 -12
-88 45 -186 57 -272 33z m200 -110 c80 -29 79 -24 79 -236 l0 -188 -32 -24
c-111 -83 -266 -51 -326 66 -30 58 -40 166 -22 232 38 134 165 198 301 150z"/>
<path d="M1122 6595 c-18 -8 -46 -29 -62 -47 l-30 -32 0 42 0 42 -110 0 -110
0 0 -55 0 -55 45 0 45 0 0 -235 0 -235 -45 0 -45 0 0 -55 0 -55 170 0 170 0 0
55 0 55 -60 0 -60 0 0 173 c0 159 2 176 23 217 24 48 56 75 100 86 23 5 27 3
27 -15 0 -19 6 -21 65 -21 l65 0 0 75 0 75 -77 0 c-45 -1 -92 -7 -111 -15z"/>
<path d="M14702 6593 c-18 -8 -43 -29 -57 -44 -13 -16 -26 -29 -29 -29 -3 0
-6 18 -6 40 l0 40 -110 0 -110 0 0 -55 0 -55 50 0 50 0 0 -235 0 -235 -50 0
-50 0 0 -55 0 -55 175 0 175 0 0 55 0 55 -60 0 -60 0 0 182 c0 175 1 183 25
223 36 63 125 98 125 50 0 -12 13 -15 60 -15 l60 0 0 75 0 75 -77 0 c-51 0
-89 -6 -111 -17z"/>
<path d="M9530 6545 l0 -55 50 0 50 0 0 -235 0 -235 -50 0 -50 0 0 -55 0 -55
165 0 165 0 0 55 0 55 -55 0 -55 0 0 290 0 290 -110 0 -110 0 0 -55z"/>
<path d="M12810 6546 c0 -52 1 -55 28 -58 26 -3 32 -16 138 -293 l112 -290 63
-3 64 -3 64 168 c168 442 160 423 192 423 29 0 29 1 29 55 l0 55 -110 0 -110
0 0 -55 c0 -48 2 -55 20 -55 11 0 20 -4 20 -10 0 -5 -32 -100 -71 -212 -98
-279 -89 -256 -99 -237 -12 21 -160 437 -160 450 0 5 14 9 30 9 30 0 30 1 30
55 l0 55 -120 0 -120 0 0 -54z"/>
<path d="M17190 6545 l0 -55 50 0 50 0 0 -235 0 -235 -50 0 -50 0 0 -55 0 -55
165 0 165 0 0 54 0 55 -52 3 -53 3 -3 288 -2 287 -110 0 -110 0 0 -55z"/>
</g>
</svg>
