<svg id="Layer_1" data-name="Layer 1" xmlns="http://www.w3.org/2000/svg" viewBox="0 0 867.86 280.93"><defs><style>.cls-1{fill:#55b748;}.cls-1,.cls-2,.cls-3,.cls-4,.cls-5{fill-rule:evenodd;}.cls-2{fill:#010101;}.cls-3{fill:#5d5e5c;}.cls-4{fill:#c1282d;}.cls-5{fill:#fff;}</style></defs><path class="cls-1" d="M527,634.34q130.47.1,238.81,5t180.09,13.14q-25.62-16.29-140.68-26.71T527,615q-163.15.32-278.21,10.74T108.13,652.47q71.76-8.36,180.09-13.14t238.81-5" transform="translate(-78.07 -371.53)"/><path class="cls-2" d="M461.25,563.89v44.28c1.38,0,2.78,0,4.23.11a3.24,3.24,0,0,0-.76-.11l-3.47-44.28" transform="translate(-78.07 -371.53)"/><path class="cls-2" d="M573.6,458.7l-13.9,18.89-14-18.89h27.9m6.19-3.15H539.51l20.19,27.36,20.09-27.36" transform="translate(-78.07 -371.53)"/><path class="cls-2" d="M494.25,541.64V608.5H489l-3-13.57V608.4h-.32l11.72.21V544.78h124v66.87h-.21c1.16,0,2.28,0,3.36.11V541.64H494.25" transform="translate(-78.07 -371.53)"/><path class="cls-2" d="M506.3,553.58v55c1,.07,2.06.11,3.15.11v-52h42.33v52.76c1.09.07,2.14.11,3.15.11v-56H506.3" transform="translate(-78.07 -371.53)"/><path class="cls-2" d="M563.93,553.58V609.8h-.21c1.09,0,2.21,0,3.37.11V556.72h42.33v54.39c1,.07,2.06.11,3.15.11V553.58H563.93" transform="translate(-78.07 -371.53)"/><path class="cls-2" d="M474.38,608.28c1.09,0,2.17,0,3.26.12l-3.26-26.93v26.81" transform="translate(-78.07 -371.53)"/><path class="cls-2" d="M541.58,477.59,550.7,490l-9.12,12.27V477.59M538.43,468v43.76L554.5,490,538.43,468" transform="translate(-78.07 -371.53)"/><path class="cls-2" d="M545.7,521.12l14-18.89,13.9,18.89H545.7m-6.19,3.15h40.28L559.7,496.91l-20.19,27.36" transform="translate(-78.07 -371.53)"/><path class="cls-2" d="M589.12,455.55v77.07h-59V447.31h59v8.24m3.15-11.4H526.93v91.62h65.34V444.15" transform="translate(-78.07 -371.53)"/><path class="cls-2" d="M577.83,502.23,568.72,490l9.11-12.37v24.64m3,9.56V468L564.81,490l16.06,21.83" transform="translate(-78.07 -371.53)"/><path class="cls-3" d="M379.19,501.47a33.24,33.24,0,0,1,.11,10.32,123.68,123.68,0,0,0,17-.34,31.65,31.65,0,0,0-3.46,10.43c3.75,2,5.53,5.36,5.31,10a12.66,12.66,0,0,1-4.56,3.25,2.54,2.54,0,0,0-.54.87h34.73l28-11.18,26.37-74.47L533,404l-46.68,7.82-19.64,3.25-24.1,4-45.81,31-26.06,48.75q5.44-.66,8.48,2.6" transform="translate(-78.07 -371.53)"/><path class="cls-3" d="M357.91,531.65q-.77-6.74-4.88-5.1L330.88,536H357a13.72,13.72,0,0,0,.87-4.34" transform="translate(-78.07 -371.53)"/><path class="cls-3" d="M382.77,534.15a15.42,15.42,0,0,1-.11,1.84h1.95a7.21,7.21,0,0,0-1.84-1.84" transform="translate(-78.07 -371.53)"/><path class="cls-3" d="M368.22,534.58a4.84,4.84,0,0,1,0,1.52h4.89q.76-2.49-4.89-1.52" transform="translate(-78.07 -371.53)"/><path class="cls-4" d="M567,556.72v53.19q20.73.55,42.33,1.2V556.72H567" transform="translate(-78.07 -371.53)"/><path class="cls-4" d="M509.45,556.72v52q20.07.33,42.44.76V556.72H509.45" transform="translate(-78.07 -371.53)"/><path class="cls-5" d="M580.87,511.67l-16.06-21.82,16.06-21.92v43.74m-41.36,12.49,20.08-27.36,20.2,27.36H539.51m-1.19-56.23,16.18,21.92-16.18,21.94V467.93m41.47-12.48-20.2,27.35-20.08-27.35h40.28m-41.47-8.25h-8.25v85.32h59.16V447.2H538.32" transform="translate(-78.07 -371.53)"/><path class="cls-2" d="M849.42,593.52H808.17v-6.84h41.25v6.84m0,14.76H808.17v-6.83h41.25v6.83m-49.17-14.76H759v-6.84h41.25v6.84m0,14.76H759v-6.83h41.25v6.83m-49.17-14.76H706.25v-6.84h44.83v6.84m0,14.76H706.25v-6.83h44.83v6.83m-69.58,6.09a.31.31,0,0,0-.22-.12l-18.78-.86h0q-19-1-38-1.74c-1.08,0-2.2,0-3.36-.11-2.9-.08-5.8-.18-8.69-.32-1,0-2.06,0-3.15-.11q-21.6-.66-42.33-1.2c-1.09-.07-2.2-.11-3.37-.11l-8.68-.21c-1,0-2.06,0-3.15-.11q-22.26-.43-42.33-.76c-1.09-.07-2.14-.11-3.15-.11q-4.56,0-8.9-.11-6-.11-11.72-.1c-2.68-.08-5.33-.12-7.93-.12h-3.37q-4.54-.1-8.9-.11h-4.23c-3-.06-6-.11-8.79-.11V547.61l19.21-7.71,27.58-78.16,62.84-57.42,34.63,32.45,38.1,82.07V535l65.24,23.66v56.67H700q-9.23-.54-18.45-1M392.87,521.88a30.69,30.69,0,0,1,3.46-10.43,123.68,123.68,0,0,1-17,.34,35.66,35.66,0,0,0,0-10.32c-2.11-2.17-5-3-8.59-2.6l26.06-48.75,45.92-31,24-4V393.13h-5.43l15.2-13.23,14.43,13.23h-4.56v18.68L533,404l-50.8,46.35-26.37,74.47-28,11.18H393.08a4.41,4.41,0,0,1,.54-1,11.58,11.58,0,0,0,4.56-3.14c.22-4.63-1.56-8-5.31-10M382.66,536a8.08,8.08,0,0,0,0-1.84,5.46,5.46,0,0,1,1.85,1.84h-1.85m-14.44,0a9.72,9.72,0,0,0,.11-1.52c3.77-.65,5.4-.15,4.89,1.52h-5M357,536H330.88l22-9.44q4.24-1.63,4.89,5.1A15.67,15.67,0,0,1,357,536M300.49,439.6q-3.58.21-7.17.32c-.22,2.39-.32,4.77-.32,7.17a31.24,31.24,0,0,0-6.19,1.51q4.77,11.73,2.71,12.82t-13.68,3.8q-8.46,3.13-9.88,3.58c-.94.29-4.08-.08-9.44-1.09A29.73,29.73,0,0,0,242,464.78q.54,13.14-12.27,11.83-6.94.22-7.92-2.39c-.65-1.73-2.65-.36-6,4.12a49.62,49.62,0,0,0-4.23,17.16q-.76,9.66-13.9,5.64a12,12,0,0,1-.33,2.94q-8.79-3.37-15.08-2.5t-5.65,13.24q-13-1.2-12.37,11.62-9.12-6.2-24.54-10t-21.27,7.82a11,11,0,0,0-1.3-5.11c-2-2.6-4.34-4-7-4.34,3.56-2.17,5-5.75,4.46-10.74a6.31,6.31,0,0,0-4.24-4.57A9.8,9.8,0,0,0,113,496.7a15.51,15.51,0,0,0,2.28-5.33l1.3.44a24.24,24.24,0,0,0,9.55,2.5,10,10,0,0,0,4.78-1,11.52,11.52,0,0,0,2.71-2q.65,4.89,5.54,7.71a9.24,9.24,0,0,0,3.37.76q2.59.11,6.29-2.17,7.6-3.69,3.26-14.44a7.5,7.5,0,0,0,4.13-2.92q2.7-5.32.54-10.11a9.26,9.26,0,0,0-.54-1.4,9,9,0,0,0,4.55-3.8q2.61-4.46,1.2-8.25c-.15-.36-.29-.69-.44-1h1a9.81,9.81,0,0,0,3.26-.32q6.84-2.94,9.87-8a20.54,20.54,0,0,1,1.74-2.06,8.47,8.47,0,0,1,6.19-2.17,40.4,40.4,0,0,0,6.62-1,6.26,6.26,0,0,0,4.77-6.29V435a9,9,0,0,1,1.42-.12,32.21,32.21,0,0,1,3.9.23c1.45.14,3,.22,4.56.22a16.49,16.49,0,0,0,8-1.85,13.52,13.52,0,0,0,4.57-4.57,16.44,16.44,0,0,1,1.19-1.4,25.23,25.23,0,0,1,3.58-.77c.58-.06,1.09-.14,1.52-.21h.54a36.22,36.22,0,0,1,6.73-.76,6.33,6.33,0,0,1,3.7.87,2.62,2.62,0,0,1,1,1.52q.87,5.87,10.53,7.06a2.46,2.46,0,0,0,.66.11,23.26,23.26,0,0,0,7.81-1.85,9.52,9.52,0,0,1,3.14-1h.33a7.73,7.73,0,0,1,2.83.55c1,2.74,2.38,4.41,4.12,5a14.31,14.31,0,0,0,6.29,1.41,14.92,14.92,0,0,0,7.28-1.85,16.74,16.74,0,0,0,2.71-2.17,10.48,10.48,0,0,0,1.41.11q7.92-1.31,11.4-5.75a21.88,21.88,0,0,1,2.82-2.28,11.38,11.38,0,0,1,2,2.93,37.08,37.08,0,0,0,2.71,4.12,3.07,3.07,0,0,0,.55.77,19.44,19.44,0,0,0-1.74,4.23M849.42,572v6.72H808.17V572h-7.92v6.72H759V572h-7.92v6.72H706.25V562.69l16.17,6,2.71-7.48L641,530.67v-6.62l17.47,6.73,2.83-7.39-21.39-8.24-37.66-81.41-.33-.76-39.84-37.13-68.17,62.31-27.24,77L437.26,547,434.44,540l26.37-10.54,26.71-75.55,65.24-59.48-60.25,10v-5.11H507l-30.4-27.79-31.91,27.79h15.85v10.43l-20.19,3.36-48.2,32.78-27.24,50.7a6.86,6.86,0,0,1-.87-.54c-1.31-2.69-2.43-5-3.37-7.06a32.92,32.92,0,0,0-8.57-2.28q-5.54-.76-4.13-6.63a12,12,0,0,0,6.19-7.37,41.68,41.68,0,0,1-3.37-10c1.66-3.12,1.23-5.57-1.29-7.38a39.47,39.47,0,0,0-11,0q-11.5.11-16.17-8.8a5.09,5.09,0,0,0-2.83-5.42,30.63,30.63,0,0,1-7.48-1.63,6.32,6.32,0,0,1-.77-2.83c-1.45-1.74-3-3.68-4.66-5.86a17.41,17.41,0,0,0-8.47-9.44q-5.21.11-9.23,5t-10.42,1.42q-2.51,7.47-10.64,4.77a5.65,5.65,0,0,1-1.08-3.47,15,15,0,0,0-9.34-2.72,105.89,105.89,0,0,1-11,2.72c-2.89-.15-4.44-.9-4.66-2.29s-1.12-2.92-2.93-4.88a20.7,20.7,0,0,0-16-1.41,23.55,23.55,0,0,0-7.05,1.52q-3.37,3.15-6.08,6.19a30.05,30.05,0,0,1-12.92.54c-5.07-.73-7.74,1.74-8,7.38a29,29,0,0,0-15.31,4.34,32.41,32.41,0,0,1-9.33,8.91,30.89,30.89,0,0,1-7.6-.33c-2.83-.5-4.85.68-6.08,3.58-.43,2.68.62,4.16,3.14,4.46s3.16,1.95,1.85,4.77A26.51,26.51,0,0,0,149,466.3a5.13,5.13,0,0,0,1.85,5.75q1.72,6.3-1.85,5.54c-2.32-.58-3.83.54-4.56,3.37a11.94,11.94,0,0,0,2.61,5.86c1.52,1.8,1,3.69-1.63,5.64q-7,2.07-6.62-7.38-4.25-.12-8.58.11-1.74,4.23-6.41,2.6c-3.11-1.08-5.67-2-7.7-2.71-5.28-.37-8,2.39-8.14,8.25a37.06,37.06,0,0,1-10.64,3.26q-3.25,5,2.28,6.94a26.6,26.6,0,0,0,9,1.85q-.33,5.1-6.84,7.16t-1.31,6a26.11,26.11,0,0,0,9.23,2.61q3.91.11,1.74,7.38c-1.09,2.82-1.55,4.6-1.41,5.32a48.56,48.56,0,0,0,2,5.1c2.17,2.53,1.71,4.34-1.41,5.43q-9.76,1.2-11.18,10.74a46.34,46.34,0,0,0-13.46.22,13,13,0,0,0-3,6.41,14.93,14.93,0,0,0-4.77,5.2,11.84,11.84,0,0,0,5.53,7.39,6.11,6.11,0,0,0,6,.32,7.17,7.17,0,0,1,3.26-1.85c1.52,1.53,3.22,3.37,5.1,5.54q11,4.24,10.86-7.05,9.76,1.18,14.33-6a12.15,12.15,0,0,1,3.14-4.12,12.6,12.6,0,0,1,7.06,2.82,59.26,59.26,0,0,1,4.55-8.79,5.67,5.67,0,0,1,6-.55c2.25-1,4.31-2.06,6.2-3.15a36.68,36.68,0,0,1,6.19,1.63q5.42.66,6.72,5.32-7.59-1.31-10,3c1.37.65,1.44,2,.21,4.13l-6.62,1.73a50.89,50.89,0,0,1-2.82,4.34,42,42,0,0,0-6,2.61q-3.15,7.92,6.07,7.81a13.43,13.43,0,0,1,10.86-3.58,33.35,33.35,0,0,0,5.65,4.35q6.08,2.49,7.05-2c-.28-2.32,1-4,3.91-5,1.81-.37,3.11.43,3.91,2.38a4.48,4.48,0,0,0,1,4.45,11.71,11.71,0,0,0,7.26-2.17,9.33,9.33,0,0,0,5.33,3.69q4-2.7,3-8a54.3,54.3,0,0,1,8.46,0,44.86,44.86,0,0,0,1.2,5.86q1.74,3.25,3.91-.43c3.17.14,4.48.94,3.9,2.39a7.16,7.16,0,0,0,.55,5.21q3,4.11,6.08.76a31.24,31.24,0,0,1,4.55-4.67,27.65,27.65,0,0,1,13.25,4.88q8.57,1.74,11.61,8v27.79q6.41-.52,13.14-1.19V597.21c.65-3.55,2.28-5,4.88-4.23s3.59-2,2.93-7.92a6.65,6.65,0,0,1,6.08.54v38.2q67-5.19,150.56-7.49Q473.09,615,527,615q96.83,0,179.22,4.12V616.2h44.83v5.43q4,.23,7.92.54v-6h41.25v9.13c2.68.21,5.32.47,7.92.75V616.2h41.25v14.23c2.68.29,5.33.62,7.93,1V572h-7.93" transform="translate(-78.07 -371.53)"/><path class="cls-1" d="M275.84,465.22q11.73-2.84,13.68-3.91t-2.71-12.71a23.83,23.83,0,0,1,6.19-1.51c0-2.4.07-4.78.21-7.17q3.69-.1,7.28-.32a16.85,16.85,0,0,1,1.74-4.23l-.55-.77a23,23,0,0,1-2.71-4.12,17.24,17.24,0,0,0-2-2.93,21.88,21.88,0,0,0-2.82,2.28q-3.48,4.34-11.4,5.64a4.75,4.75,0,0,1-1.41,0,16.74,16.74,0,0,1-2.71,2.17,15.54,15.54,0,0,1-7.38,1.85,14.1,14.1,0,0,1-6.19-1.41q-2.61-.87-4.12-5.1a9.64,9.64,0,0,0-2.83-.44h-.43a9.52,9.52,0,0,0-3,1,21.66,21.66,0,0,1-7.81,1.74,1.23,1.23,0,0,1-.66,0q-9.66-1.2-10.53-7.06a2.62,2.62,0,0,0-1-1.52,5.43,5.43,0,0,0-3.7-.87,42.4,42.4,0,0,0-6.73.65l-.54.11c-.43.07-.94.15-1.52.21a13.81,13.81,0,0,0-3.58.77,16.44,16.44,0,0,0-1.19,1.4,15,15,0,0,1-4.57,4.57,17.12,17.12,0,0,1-8.14,1.85l-4.55-.22a29.73,29.73,0,0,0-3.8-.23A9,9,0,0,0,195,435v.87a6.26,6.26,0,0,1-4.77,6.29,40.4,40.4,0,0,1-6.62,1,8.74,8.74,0,0,0-6.19,2.06,19.58,19.58,0,0,0-1.74,2.07q-3,5.2-9.87,8a8.56,8.56,0,0,1-3.26.43h-1c.15.29.29.62.44,1q1.29,3.79-1.2,8.25a9,9,0,0,1-4.55,3.8,9.26,9.26,0,0,1,.54,1.4,11,11,0,0,1-.54,10,7.36,7.36,0,0,1-4.13,3q4.35,10.75-3.37,14.44c-2.38,1.52-4.45,2.21-6.18,2.06a7.57,7.57,0,0,1-3.37-.65q-4.89-2.82-5.54-7.71a11.52,11.52,0,0,1-2.71,2,12.58,12.58,0,0,1-4.78,1,26.47,26.47,0,0,1-9.55-2.5,9.66,9.66,0,0,1-1.3-.54A15.44,15.44,0,0,1,113,496.7a12.46,12.46,0,0,1-2.61,2.81,6,6,0,0,1,4.13,4.57q.87,7.49-4.35,10.74c2.62.29,4.89,1.74,6.85,4.34a10.1,10.1,0,0,1,1.41,5q6-11.62,21.27-7.82t24.54,10.1q-.66-12.81,12.37-11.62-.65-12.38,5.65-13.24t15.08,2.5a9.51,9.51,0,0,0,.22-2.94q13.23,4,14-5.64a49.62,49.62,0,0,1,4.23-17.16c3.32-4.48,5.32-5.85,6-4.12s3.25,2.46,7.81,2.39q12.93,1.31,12.38-11.83a30.61,30.61,0,0,1,14.54,2.82c5.36,1.09,8.5,1.49,9.44,1.2s4.24-1.49,9.88-3.58" transform="translate(-78.07 -371.53)"/><polyline class="cls-5" points="408.25 21.6 388.61 21.6 388.61 43.53 408.25 40.27 408.25 21.6"/><polyline class="cls-3" points="412.82 21.6 398.38 8.36 383.18 21.6 412.82 21.6"/><polyline class="cls-4" points="495.53 87.17 467.63 87.17 481.52 106.06 495.53 87.17"/><polyline class="cls-4" points="467.63 149.48 495.53 149.48 481.52 130.59 467.63 149.48"/><polyline class="cls-4" points="499.76 130.69 499.76 106.06 490.65 118.43 499.76 130.69"/><polyline class="cls-4" points="463.51 106.06 463.51 130.69 472.63 118.43 463.51 106.06"/><path class="cls-4" d="M526.93,444.05h65.34v91.62H526.93V444.05m-65.68,164V563.78l3.47,44.39h9.66v-26.8l3.26,26.91c2.61,0,5.28,0,8,.12.06-.08.17-.08.32,0V594.83l3,13.57c1.66,0,3.39,0,5.21.1v-67H624.51v70.12q19,.76,38,1.63,9.45.54,18.78,1h.22L700,615.34V558.67L634.71,535V518.84l-38-82.07-34.63-32.45-62.84,57.42L471.56,539.9l-19.1,7.6v60.56h8.79" transform="translate(-78.07 -371.53)"/><path class="cls-5" d="M621.36,544.78h-124v63.83q4.34,0,8.9.11v-55h48.63v56l8.68.22h.22V553.69h48.63v57.63q4.34.21,8.69.33h.21V544.78" transform="translate(-78.07 -371.53)"/></svg>